<svg width="256" height="256" fill="none" xmlns="http://www.w3.org/2000/svg" xmlns:xlink="http://www.w3.org/1999/xlink"><g clip-path="url(#clip0)"><path fill="#fff" d="M0 0h256v256H0z"/><path d="M0 72c0-25.202 0-37.803 4.905-47.43A45 45 0 0124.57 4.905C34.197 0 46.798 0 72 0h112c25.202 0 37.804 0 47.43 4.905a44.998 44.998 0 0119.665 19.665C256 34.197 256 46.798 256 72v112c0 25.202 0 37.804-4.905 47.43a44.997 44.997 0 01-19.665 19.665C221.804 256 209.202 256 184 256H72c-25.202 0-37.803 0-47.43-4.905A44.998 44.998 0 014.905 231.43C0 221.804 0 209.202 0 184V72z" fill="#1A1A1B"/><mask id="a" maskUnits="userSpaceOnUse" x="43" y="52" width="170" height="153"><path d="M90.355 204.278v-52.544H145.8v-35.253H90.355v-27.89h61.357V52H43.5v152.278h46.855zM212.5 204.278V52h-46.855v152.278H212.5z" fill="#fff"/></mask><g mask="url(#a)"><path d="M39.222 48.59h174.945v174.945H39.222V48.59z" fill="url(#pattern0)"/><path d="M102.542 132.146h134.472v116.195H102.542V132.146z" fill="url(#paint0_linear)"/><path d="M164.882 212.764c-5.222 19.91 0 23.5 0 23.5H73.166l21.869-121.417 137.41-25.784s51.896 59.076 37.861 81.597c-14.035 22.521-45.694-22.847-67.889-15.667-22.195 7.181-32.313 37.862-37.535 57.771z" fill="url(#paint1_linear)"/><path d="M238.646 125.944s-35.859-16.972-61.035 7.834c-25.176 24.805-21.868 48.632-30.028 67.563-8.159 18.93-55.16 49.285-55.16 49.285l-44.062-35.251v-67.889L136.16 46.632l77.354-15.014 42.757 34.597-17.625 59.729z" fill="url(#paint2_linear)"/><path d="M225.591 97.549c-23.827-13.709-63.646-.98-80.619 14.361-16.972 15.34-9.791 44.389-18.604 56.465-8.812 12.077-16.646 34.924-62.667 60.709-46.02 25.785-50.59-81.598-50.59-81.598l47-63.32 95.959-70.5s56.792 5.549 46.674 14.035c-10.119 8.486 46.673 83.556 22.847 69.848z" fill="url(#paint3_linear)"/><path d="M73.493 167.069C56.52 179.146 10.5 148.792 10.5 148.792l-3.59-36.23L127.02 33.249l62.667-40.798s67.889 108.361 26.111 80.618c-41.778-27.743-99.223 16.32-112.605 30.354-13.382 14.035-12.729 51.57-29.701 63.646z" fill="url(#paint4_linear)"/><path d="M33.347 123.007C8.54 111.91-28.993 90.694-28.993 90.694l15.34-11.75L47.382-13.75 108.09 1.59s71.48 13.383 28.608 41.517c-36.882 5.222-53.413 28.658-65.49 47.588-12.076 18.931-13.055 43.41-37.861 32.313z" fill="url(#paint5_linear)"/></g></g><defs><linearGradient id="paint0_linear" x1="188.382" y1="229.41" x2="226.669" y2="159.263" gradientUnits="userSpaceOnUse"><stop stop-color="#5418FF"/><stop offset="1" stop-color="#892CFF"/></linearGradient><linearGradient id="paint1_linear" x1="168.119" y1="89.063" x2="168.119" y2="236.264" gradientUnits="userSpaceOnUse"><stop stop-color="#1C77FF"/><stop offset="1" stop-color="#2E7CF1"/></linearGradient><linearGradient id="paint2_linear" x1="152.316" y1="47.611" x2="152.316" y2="239.202" gradientUnits="userSpaceOnUse"><stop stop-color="#D6FF94"/><stop offset="1" stop-color="#02A3FD"/></linearGradient><linearGradient id="paint3_linear" x1="144.646" y1="-12.771" x2="117.229" y2="218.313" gradientUnits="userSpaceOnUse"><stop offset=".37" stop-color="#FFB800"/><stop offset="1" stop-color="#FF6F1E"/></linearGradient><linearGradient id="paint4_linear" x1="97.482" y1="33.249" x2="97.482" y2="227.125" gradientUnits="userSpaceOnUse"><stop stop-color="#FF9B04"/><stop offset="1" stop-color="#FF4105"/></linearGradient><linearGradient id="paint5_linear" x1="74.309" y1="-13.751" x2="74.309" y2="156.625" gradientUnits="userSpaceOnUse"><stop stop-color="#FF7D7D"/><stop offset="1" stop-color="#F21C83"/></linearGradient><clipPath id="clip0"><path fill="#fff" d="M0 0h256v256H0z"/></clipPath><pattern id="pattern0" patternContentUnits="objectBoundingBox" width="1" height="1"><use xlink:href="#image0" transform="scale(.00109)"/></pattern></defs></svg>