<svg width="256" height="256" fill="none" xmlns="http://www.w3.org/2000/svg" xmlns:xlink="http://www.w3.org/1999/xlink"><mask id="a" maskUnits="userSpaceOnUse" x="22" y="32" width="213" height="192"><path d="M80.915 223.474v-66.069h69.716v-44.327H80.915V78.01h77.151V32H22v191.474h58.915zM234.5 223.474V32h-58.915v191.474H234.5z" fill="#fff"/></mask><g mask="url(#a)"><path d="M16.62 27.712h219.976v219.976H16.621V27.712z" fill="url(#pattern0)"/><path d="M96.239 132.775h169.085v146.103H96.239V132.775z" fill="url(#paint0_linear)"/><path d="M174.626 234.144c-6.567 25.035 0 29.549 0 29.549H59.303L86.8 111.024l172.779-32.422s65.254 74.283 47.606 102.601c-17.647 28.317-57.456-28.729-85.363-19.7-27.907 9.029-40.63 47.607-47.196 72.641z" fill="url(#paint1_linear)"/><path d="M267.376 124.977s-45.089-21.341-76.745 9.85c-31.656 31.19-27.497 61.15-37.757 84.953-10.26 23.803-69.358 61.971-69.358 61.971l-55.404-44.324v-85.363L138.51 25.25 235.775 6.37l53.763 43.503-22.162 75.103z" fill="url(#paint2_linear)"/><path d="M250.96 89.272c-29.959-17.236-80.028-1.23-101.369 18.058-21.341 19.289-12.312 55.815-23.393 71-11.081 15.185-20.93 43.913-78.797 76.334-57.867 32.422-63.612-102.6-63.612-102.6l59.097-79.618 120.659-88.647s71.41 6.977 58.687 17.647C209.51 12.116 280.92 106.51 250.96 89.272z" fill="url(#paint3_linear)"/><path d="M59.713 176.688c-21.341 15.185-79.208-22.982-79.208-22.982l-4.514-45.555L127.019 8.423l78.797-51.3s85.363 136.254 32.832 101.37C186.117 23.607 113.886 79.012 97.059 96.66c-16.826 17.647-16.005 64.843-37.346 80.028z" fill="url(#paint4_linear)"/><path d="M9.233 121.284c-31.19-13.954-78.386-40.63-78.386-40.63l19.289-14.774L26.88-50.674l76.334 19.289s89.878 16.826 35.971 52.201C92.811 27.383 72.025 56.851 56.84 80.654c-15.185 23.804-16.416 54.584-47.607 40.63z" fill="url(#paint5_linear)"/></g><defs><linearGradient id="paint0_linear" x1="204.174" y1="255.075" x2="252.316" y2="166.872" gradientUnits="userSpaceOnUse"><stop stop-color="#5418FF"/><stop offset="1" stop-color="#892CFF"/></linearGradient><linearGradient id="paint1_linear" x1="178.695" y1="78.602" x2="178.695" y2="263.693" gradientUnits="userSpaceOnUse"><stop stop-color="#1C77FF"/><stop offset="1" stop-color="#2E7CF1"/></linearGradient><linearGradient id="paint2_linear" x1="158.825" y1="26.481" x2="158.825" y2="267.387" gradientUnits="userSpaceOnUse"><stop stop-color="#D6FF94"/><stop offset="1" stop-color="#02A3FD"/></linearGradient><linearGradient id="paint3_linear" x1="149.181" y1="-49.443" x2="114.707" y2="241.121" gradientUnits="userSpaceOnUse"><stop offset=".37" stop-color="#FFB800"/><stop offset="1" stop-color="#FF6F1E"/></linearGradient><linearGradient id="paint4_linear" x1="89.877" y1="8.423" x2="89.877" y2="252.202" gradientUnits="userSpaceOnUse"><stop stop-color="#FF9B04"/><stop offset="1" stop-color="#FF4105"/></linearGradient><linearGradient id="paint5_linear" x1="60.739" y1="-50.674" x2="60.739" y2="163.555" gradientUnits="userSpaceOnUse"><stop stop-color="#FF7D7D"/><stop offset="1" stop-color="#F21C83"/></linearGradient><pattern id="pattern0" patternContentUnits="objectBoundingBox" width="1" height="1"><use xlink:href="#image0" transform="scale(.00109)"/></pattern></defs></svg>