<?xml version="1.0" standalone="no"?>
<!DOCTYPE svg PUBLIC "-//W3C//DTD SVG 20010904//EN"
 "http://www.w3.org/TR/2001/REC-SVG-20010904/DTD/svg10.dtd">
<svg version="1.0" xmlns="http://www.w3.org/2000/svg"
 width="298.000000pt" height="298.000000pt" viewBox="0 0 298.000000 298.000000"
 preserveAspectRatio="xMidYMid meet">
<g transform="translate(0.000000,298.000000) scale(0.100000,-0.100000)"
fill="#000000" stroke="none">
<path d="M1790 2731 c0 -3 -379 -6 -842 -6 l-843 0 0 -1237 0 -1238 80 0 c44
0 207 -1 363 -3 155 -1 283 0 283 3 1 3 2 201 3 440 l1 435 450 2 c248 1 455
2 460 2 10 1 15 540 5 542 -3 0 -210 2 -460 2 l-455 2 0 238 c0 231 0 237 20
237 11 1 239 1 508 1 l487 1 0 288 0 288 -30 4 c-16 3 -30 2 -30 -1z"/>
<path d="M2217 2733 c-4 -6 -18 -8 -32 -5 -17 3 -25 0 -26 -9 -5 -57 -3 -107
3 -126 4 -13 4 -23 0 -23 -4 0 -6 -80 -5 -177 3 -211 3 -180 0 -280 -1 -46 1
-83 6 -83 4 0 5 -6 0 -12 -10 -17 -10 -38 -1 -65 4 -13 4 -23 0 -23 -4 0 -6
-80 -5 -177 3 -211 3 -180 0 -280 -1 -46 1 -83 6 -83 4 0 5 -6 0 -12 -10 -17
-10 -38 -1 -65 4 -13 4 -23 0 -23 -4 0 -6 -80 -5 -177 3 -211 3 -180 0 -280
-1 -46 1 -83 6 -83 4 0 5 -6 0 -13 -10 -16 -10 -37 -1 -64 4 -13 4 -23 0 -23
-9 0 -8 -303 2 -318 4 -7 3 -12 -3 -12 -8 0 -5 -59 4 -68 2 -2 432 -4 701 -2
l20 0 0 1240 0 1241 -328 -3 c-201 -2 -329 1 -331 7 -2 5 -6 5 -10 -2z"/>
</g>
</svg>
